<svg xmlns="http://www.w3.org/2000/svg" viewBox="0 0 1600 600" shape-rendering="crispEdges"><defs><pattern id="grass" width="64" height="64" patternUnits="userSpaceOnUse"><rect width="64" height="64" fill="#527c38"/><rect x="12" y="0" width="12" height="8" fill="#4d7433"/><rect x="28" y="16" width="12" height="4" fill="#5a843c"/><rect x="52" y="4" width="4" height="4" fill="#4d7433"/><rect x="28" y="0" width="12" height="4" fill="#476f32"/><rect x="28" y="56" width="12" height="8" fill="#5a843c"/><rect x="20" y="52" width="8" height="8" fill="#4d7433"/><rect x="24" y="40" width="4" height="4" fill="#476f32"/><rect x="12" y="44" width="8" height="8" fill="#5a843c"/><rect x="56" y="12" width="8" height="4" fill="#608841"/><rect x="44" y="24" width="12" height="4" fill="#5a843c"/><rect x="28" y="36" width="4" height="4" fill="#5a843c"/><rect x="48" y="32" width="8" height="8" fill="#4d7433"/><rect x="44" y="44" width="4" height="8" fill="#5a843c"/><rect x="20" y="28" width="4" height="8" fill="#476f32"/><rect x="32" y="28" width="12" height="8" fill="#5a843c"/><rect x="28" y="4" width="8" height="8" fill="#608841"/><rect x="8" y="24" width="12" height="8" fill="#4d7433"/><rect x="60" y="48" width="12" height="8" fill="#4d7433"/><rect x="32" y="16" width="4" height="8" fill="#476f32"/><rect x="48" y="44" width="4" height="4" fill="#476f32"/><rect x="8" y="4" width="4" height="4" fill="#4d7433"/><rect x="52" y="8" width="8" height="8" fill="#476f32"/><rect x="32" y="0" width="12" height="4" fill="#608841"/><rect x="40" y="12" width="8" height="8" fill="#4d7433"/><rect x="56" y="0" width="12" height="8" fill="#4d7433"/><rect x="12" y="36" width="12" height="4" fill="#4d7433"/><rect x="44" y="20" width="12" height="4" fill="#608841"/><rect x="60" y="0" width="4" height="8" fill="#608841"/><rect x="28" y="4" width="4" height="4" fill="#5a843c"/><rect x="60" y="8" width="12" height="4" fill="#4d7433"/><rect x="60" y="20" width="8" height="8" fill="#4d7433"/><rect x="24" y="36" width="8" height="8" fill="#476f32"/><rect x="56" y="12" width="4" height="4" fill="#5a843c"/><rect x="40" y="0" width="12" height="4" fill="#4d7433"/><rect x="0" y="8" width="12" height="4" fill="#4d7433"/><rect x="8" y="4" width="8" height="4" fill="#4d7433"/><rect x="32" y="60" width="4" height="4" fill="#476f32"/><rect x="28" y="60" width="8" height="4" fill="#5a843c"/><rect x="12" y="52" width="8" height="8" fill="#476f32"/><rect x="56" y="4" width="12" height="4" fill="#5a843c"/><rect x="48" y="40" width="4" height="4" fill="#4d7433"/><rect x="24" y="56" width="4" height="8" fill="#4d7433"/><rect x="32" y="56" width="4" height="4" fill="#476f32"/><rect x="12" y="4" width="12" height="4" fill="#5a843c"/><rect x="28" y="20" width="8" height="8" fill="#476f32"/></pattern><pattern id="dirt" width="64" height="64" patternUnits="userSpaceOnUse"><rect width="64" height="64" fill="#70503a"/><rect x="24" y="48" width="4" height="4" fill="#584432"/><rect x="0" y="48" width="8" height="8" fill="#95704f"/><rect x="52" y="60" width="4" height="4" fill="#95704f"/><rect x="24" y="4" width="12" height="4" fill="#95704f"/><rect x="4" y="4" width="12" height="8" fill="#835c43"/><rect x="4" y="8" width="4" height="4" fill="#624532"/><rect x="28" y="48" width="4" height="4" fill="#624532"/><rect x="8" y="52" width="12" height="8" fill="#95704f"/><rect x="24" y="40" width="4" height="8" fill="#584432"/><rect x="16" y="36" width="8" height="8" fill="#624532"/><rect x="0" y="56" width="12" height="4" fill="#624532"/><rect x="24" y="32" width="4" height="8" fill="#624532"/><rect x="28" y="44" width="8" height="4" fill="#584432"/><rect x="36" y="0" width="12" height="8" fill="#624532"/><rect x="16" y="32" width="4" height="4" fill="#835c43"/><rect x="32" y="36" width="12" height="4" fill="#95704f"/><rect x="24" y="32" width="12" height="8" fill="#95704f"/><rect x="4" y="8" width="12" height="8" fill="#95704f"/><rect x="4" y="0" width="8" height="4" fill="#95704f"/><rect x="20" y="56" width="12" height="8" fill="#624532"/><rect x="12" y="8" width="12" height="4" fill="#624532"/><rect x="44" y="16" width="8" height="4" fill="#624532"/><rect x="36" y="44" width="4" height="8" fill="#835c43"/><rect x="28" y="12" width="8" height="8" fill="#835c43"/><rect x="28" y="20" width="4" height="8" fill="#624532"/><rect x="20" y="40" width="8" height="4" fill="#95704f"/><rect x="20" y="12" width="8" height="4" fill="#584432"/><rect x="28" y="24" width="8" height="8" fill="#95704f"/><rect x="28" y="28" width="4" height="4" fill="#584432"/><rect x="40" y="32" width="4" height="8" fill="#95704f"/><rect x="48" y="40" width="4" height="4" fill="#95704f"/><rect x="20" y="32" width="4" height="4" fill="#584432"/><rect x="44" y="40" width="8" height="4" fill="#584432"/><rect x="24" y="32" width="4" height="8" fill="#624532"/><rect x="24" y="44" width="8" height="4" fill="#95704f"/><rect x="40" y="12" width="12" height="8" fill="#95704f"/><rect x="52" y="40" width="8" height="8" fill="#835c43"/><rect x="24" y="52" width="12" height="8" fill="#835c43"/><rect x="36" y="48" width="12" height="4" fill="#95704f"/><rect x="36" y="24" width="8" height="8" fill="#584432"/><rect x="56" y="56" width="12" height="4" fill="#584432"/><rect x="20" y="8" width="8" height="8" fill="#624532"/><rect x="28" y="36" width="4" height="4" fill="#835c43"/><rect x="0" y="4" width="4" height="8" fill="#624532"/><rect x="56" y="52" width="12" height="4" fill="#584432"/><rect x="60" y="48" width="4" height="4" fill="#624532"/><rect x="12" y="52" width="4" height="4" fill="#584432"/><rect x="4" y="28" width="4" height="8" fill="#835c43"/><rect x="56" y="40" width="8" height="8" fill="#584432"/><rect x="20" y="60" width="8" height="8" fill="#835c43"/><rect x="32" y="60" width="12" height="4" fill="#95704f"/><rect x="56" y="8" width="12" height="8" fill="#835c43"/><rect x="32" y="40" width="8" height="4" fill="#835c43"/><rect x="16" y="28" width="8" height="4" fill="#835c43"/><rect x="8" y="52" width="8" height="8" fill="#584432"/><rect x="52" y="4" width="4" height="8" fill="#584432"/><rect x="0" y="48" width="8" height="4" fill="#95704f"/><rect x="36" y="48" width="8" height="4" fill="#584432"/><rect x="28" y="32" width="8" height="8" fill="#624532"/><rect x="48" y="40" width="12" height="8" fill="#835c43"/><rect x="56" y="16" width="12" height="4" fill="#584432"/><rect x="0" y="8" width="12" height="8" fill="#835c43"/><rect x="56" y="20" width="4" height="8" fill="#584432"/><rect x="40" y="24" width="8" height="8" fill="#95704f"/><rect x="48" y="32" width="8" height="8" fill="#624532"/><rect x="60" y="0" width="12" height="4" fill="#95704f"/><rect x="28" y="8" width="12" height="4" fill="#624532"/><rect x="28" y="24" width="4" height="4" fill="#835c43"/><rect x="16" y="60" width="12" height="4" fill="#835c43"/><rect x="56" y="32" width="8" height="4" fill="#624532"/></pattern><pattern id="leaves" width="64" height="64" patternUnits="userSpaceOnUse"><rect width="64" height="64" fill="#355c2b"/><rect x="20" y="36" width="4" height="4" fill="#487b33"/><rect x="48" y="48" width="12" height="4" fill="#406e2e"/><rect x="28" y="12" width="12" height="8" fill="#406e2e"/><rect x="4" y="44" width="12" height="8" fill="#487b33"/><rect x="8" y="40" width="4" height="8" fill="#315527"/><rect x="12" y="52" width="8" height="8" fill="#294c26"/><rect x="52" y="20" width="12" height="8" fill="#315527"/><rect x="56" y="52" width="12" height="8" fill="#487b33"/><rect x="28" y="8" width="8" height="8" fill="#294c26"/><rect x="56" y="48" width="8" height="4" fill="#315527"/><rect x="40" y="20" width="8" height="4" fill="#487b33"/><rect x="32" y="40" width="8" height="8" fill="#406e2e"/><rect x="24" y="8" width="4" height="8" fill="#315527"/><rect x="28" y="60" width="12" height="8" fill="#315527"/><rect x="0" y="8" width="8" height="4" fill="#315527"/><rect x="28" y="36" width="12" height="8" fill="#315527"/><rect x="44" y="52" width="12" height="8" fill="#487b33"/><rect x="56" y="32" width="8" height="8" fill="#294c26"/><rect x="12" y="24" width="8" height="4" fill="#294c26"/><rect x="24" y="24" width="12" height="8" fill="#487b33"/><rect x="36" y="12" width="4" height="8" fill="#294c26"/><rect x="44" y="20" width="8" height="4" fill="#294c26"/><rect x="32" y="4" width="4" height="8" fill="#294c26"/><rect x="60" y="12" width="4" height="8" fill="#315527"/><rect x="60" y="56" width="8" height="4" fill="#406e2e"/><rect x="32" y="60" width="4" height="4" fill="#315527"/><rect x="60" y="8" width="12" height="4" fill="#294c26"/><rect x="16" y="36" width="4" height="4" fill="#406e2e"/><rect x="52" y="28" width="12" height="8" fill="#315527"/><rect x="56" y="36" width="12" height="8" fill="#487b33"/><rect x="4" y="12" width="4" height="4" fill="#487b33"/><rect x="8" y="20" width="4" height="4" fill="#406e2e"/><rect x="20" y="0" width="8" height="8" fill="#315527"/><rect x="36" y="4" width="4" height="8" fill="#487b33"/><rect x="56" y="8" width="12" height="4" fill="#487b33"/><rect x="24" y="52" width="4" height="4" fill="#294c26"/><rect x="32" y="16" width="4" height="4" fill="#294c26"/><rect x="36" y="36" width="8" height="4" fill="#315527"/><rect x="36" y="48" width="8" height="8" fill="#315527"/><rect x="8" y="4" width="8" height="8" fill="#487b33"/><rect x="0" y="8" width="4" height="4" fill="#487b33"/><rect x="4" y="20" width="8" height="8" fill="#487b33"/><rect x="20" y="52" width="12" height="8" fill="#406e2e"/><rect x="60" y="44" width="8" height="8" fill="#487b33"/><rect x="12" y="20" width="8" height="8" fill="#315527"/><rect x="36" y="48" width="12" height="4" fill="#315527"/><rect x="8" y="40" width="8" height="8" fill="#406e2e"/><rect x="48" y="0" width="12" height="8" fill="#315527"/><rect x="4" y="24" width="12" height="8" fill="#315527"/><rect x="56" y="4" width="4" height="8" fill="#294c26"/><rect x="36" y="56" width="12" height="8" fill="#406e2e"/><rect x="0" y="28" width="12" height="4" fill="#487b33"/><rect x="0" y="52" width="4" height="4" fill="#406e2e"/><rect x="56" y="12" width="12" height="4" fill="#315527"/><rect x="36" y="32" width="8" height="8" fill="#315527"/><rect x="28" y="56" width="12" height="4" fill="#315527"/><rect x="24" y="16" width="4" height="8" fill="#315527"/><rect x="40" y="32" width="4" height="8" fill="#487b33"/><rect x="60" y="16" width="8" height="8" fill="#487b33"/><rect x="40" y="48" width="8" height="8" fill="#294c26"/><rect x="28" y="48" width="4" height="8" fill="#406e2e"/><rect x="40" y="60" width="12" height="8" fill="#315527"/><rect x="16" y="60" width="4" height="4" fill="#487b33"/><rect x="12" y="56" width="4" height="8" fill="#406e2e"/><rect x="16" y="52" width="12" height="4" fill="#406e2e"/><rect x="60" y="32" width="8" height="8" fill="#406e2e"/><rect x="40" y="48" width="8" height="8" fill="#406e2e"/><rect x="8" y="28" width="12" height="8" fill="#294c26"/><rect x="8" y="52" width="4" height="4" fill="#315527"/><rect x="20" y="36" width="4" height="4" fill="#487b33"/><rect x="4" y="36" width="8" height="8" fill="#315527"/><rect x="16" y="28" width="12" height="8" fill="#294c26"/><rect x="20" y="20" width="4" height="8" fill="#294c26"/><rect x="60" y="16" width="4" height="8" fill="#487b33"/><rect x="56" y="32" width="12" height="4" fill="#315527"/></pattern><pattern id="leaflight" width="64" height="64" patternUnits="userSpaceOnUse"><rect width="64" height="64" fill="#547b35"/><rect x="36" y="20" width="4" height="8" fill="#719747"/><rect x="36" y="52" width="12" height="8" fill="#50732f"/><rect x="36" y="24" width="8" height="8" fill="#648a3e"/><rect x="28" y="48" width="12" height="8" fill="#719747"/><rect x="36" y="0" width="12" height="8" fill="#719747"/><rect x="0" y="4" width="12" height="8" fill="#719747"/><rect x="28" y="44" width="4" height="4" fill="#719747"/><rect x="16" y="12" width="12" height="4" fill="#719747"/><rect x="56" y="4" width="12" height="8" fill="#476d2d"/><rect x="8" y="36" width="8" height="8" fill="#476d2d"/><rect x="24" y="16" width="12" height="8" fill="#719747"/><rect x="20" y="32" width="8" height="8" fill="#719747"/><rect x="12" y="56" width="4" height="4" fill="#476d2d"/><rect x="48" y="44" width="4" height="8" fill="#648a3e"/><rect x="32" y="12" width="8" height="8" fill="#719747"/><rect x="48" y="44" width="4" height="4" fill="#50732f"/><rect x="0" y="40" width="12" height="4" fill="#648a3e"/><rect x="56" y="36" width="12" height="8" fill="#648a3e"/><rect x="16" y="4" width="4" height="8" fill="#50732f"/><rect x="12" y="12" width="4" height="4" fill="#50732f"/><rect x="56" y="44" width="12" height="8" fill="#476d2d"/><rect x="52" y="12" width="8" height="8" fill="#719747"/><rect x="4" y="44" width="4" height="8" fill="#50732f"/><rect x="28" y="44" width="4" height="8" fill="#719747"/><rect x="4" y="48" width="8" height="4" fill="#648a3e"/><rect x="56" y="8" width="12" height="4" fill="#648a3e"/><rect x="4" y="40" width="4" height="4" fill="#476d2d"/><rect x="8" y="24" width="12" height="4" fill="#476d2d"/><rect x="40" y="16" width="12" height="4" fill="#719747"/><rect x="16" y="16" width="12" height="8" fill="#476d2d"/><rect x="12" y="0" width="4" height="4" fill="#719747"/><rect x="28" y="40" width="4" height="4" fill="#719747"/><rect x="4" y="16" width="12" height="8" fill="#648a3e"/><rect x="8" y="60" width="8" height="8" fill="#648a3e"/><rect x="56" y="28" width="12" height="4" fill="#719747"/><rect x="56" y="0" width="4" height="8" fill="#50732f"/><rect x="52" y="12" width="8" height="8" fill="#648a3e"/><rect x="8" y="40" width="12" height="4" fill="#648a3e"/><rect x="16" y="32" width="12" height="8" fill="#50732f"/><rect x="36" y="56" width="12" height="8" fill="#648a3e"/><rect x="12" y="24" width="8" height="8" fill="#476d2d"/><rect x="52" y="40" width="8" height="8" fill="#50732f"/><rect x="12" y="40" width="8" height="8" fill="#719747"/><rect x="44" y="16" width="12" height="8" fill="#648a3e"/><rect x="8" y="8" width="4" height="8" fill="#648a3e"/></pattern><pattern id="wood" width="64" height="64" patternUnits="userSpaceOnUse"><rect width="64" height="64" fill="#6c5032"/><rect x="44" y="16" width="12" height="4" fill="#806443"/><rect x="12" y="52" width="8" height="8" fill="#765638"/><rect x="36" y="36" width="8" height="4" fill="#5e442b"/><rect x="16" y="60" width="4" height="4" fill="#806443"/><rect x="44" y="12" width="8" height="4" fill="#4f3928"/><rect x="0" y="32" width="4" height="4" fill="#806443"/><rect x="36" y="40" width="8" height="4" fill="#5e442b"/><rect x="16" y="48" width="4" height="4" fill="#765638"/><rect x="8" y="24" width="8" height="8" fill="#4f3928"/><rect x="40" y="20" width="8" height="8" fill="#806443"/><rect x="8" y="4" width="4" height="4" fill="#765638"/><rect x="8" y="32" width="8" height="8" fill="#4f3928"/><rect x="56" y="52" width="8" height="4" fill="#765638"/><rect x="44" y="52" width="4" height="8" fill="#4f3928"/><rect x="36" y="4" width="4" height="8" fill="#765638"/><rect x="0" y="24" width="8" height="4" fill="#5e442b"/><rect x="32" y="36" width="8" height="4" fill="#765638"/><rect x="60" y="52" width="4" height="4" fill="#4f3928"/><rect x="28" y="44" width="4" height="8" fill="#765638"/><rect x="52" y="0" width="8" height="4" fill="#806443"/><rect x="52" y="48" width="12" height="8" fill="#806443"/><rect x="12" y="48" width="4" height="8" fill="#5e442b"/><rect x="56" y="44" width="4" height="8" fill="#765638"/><rect x="28" y="52" width="12" height="8" fill="#765638"/><rect x="48" y="36" width="12" height="8" fill="#5e442b"/><rect x="40" y="20" width="4" height="4" fill="#5e442b"/><rect x="44" y="44" width="12" height="4" fill="#5e442b"/><rect x="12" y="16" width="8" height="4" fill="#5e442b"/><rect x="16" y="8" width="4" height="8" fill="#4f3928"/><rect x="56" y="40" width="12" height="8" fill="#5e442b"/><rect x="56" y="8" width="8" height="8" fill="#806443"/><rect x="32" y="4" width="8" height="4" fill="#806443"/><rect x="56" y="56" width="4" height="4" fill="#806443"/><rect x="36" y="8" width="12" height="4" fill="#4f3928"/><rect x="56" y="4" width="8" height="4" fill="#806443"/></pattern><pattern id="plank" width="64" height="20" patternUnits="userSpaceOnUse"><rect width="64" height="20" fill="#937547"/><path d="M0 0h64M0 19h64M32 0v10M0 10h64M12 10v10" stroke="#705731" stroke-width="2"/><path d="M3 5h21m15 10h19" stroke="#ab8956" stroke-width="2"/></pattern></defs><rect x="0" y="0" width="1600" height="600" fill="#7eafc4"/><rect x="0" y="135" width="1600" height="220" fill="#93bdc9"/><path d="M60 52h32v-14h120v14h43v24h-28v10H60z" fill="#d6e3df"/><rect x="72" y="76" width="155" height="10" fill="#b8d2d5"/><path d="M450 86h32v-14h85v14h43v24h-28v10H450z" fill="#d6e3df"/><rect x="462" y="110" width="120" height="10" fill="#b8d2d5"/><path d="M930 34h32v-14h107v14h43v24h-28v10H930z" fill="#d6e3df"/><rect x="942" y="58" width="142" height="10" fill="#b8d2d5"/><path d="M1320 90h32v-14h145v14h43v24h-28v10H1320z" fill="#d6e3df"/><rect x="1332" y="114" width="180" height="10" fill="#b8d2d5"/><path d="M0 320V220h90v-36h65v-35h85v40h100v-30h80v70h100v-35h130v44h125v-85h65v-35h65v45h70v-65h96v35h83v75h111v-47h60v-45h99v34h76v42h80v180z" fill="#789989"/><path d="M0 355V270h140v-45h83v40h108v-27h115v60h173v-23h120v35h178v-32h138v-68h80v-29h60v44h100v41h123v-45h82v190z" fill="#5d8162"/><path d="M0 350h160v-35h208v24h270v-24h188v-28h210v-23h272v27h180v27h112v282H0z" fill="url(#dirt)"/><path d="M0 350h160v-35h208v24h270v-24h188v-28h210v-23h272v27h180v27h112v28h-112v-27h-180v-27h-272v23H826v28H638v24H368v-24H160v35H0z" fill="url(#grass)"/><path d="M0 404h200v-21h220v17h510v-20h260v-14h180v22h230v212H0z" fill="url(#grass)"/><g transform="translate(740 258) scale(0.62)"><rect x="-13" y="0" width="28" height="146" fill="url(#wood)"/><rect x="8" y="0" width="9" height="146" fill="#493923"/><path d="M-69 17v-65h21v-35h94v22h34v70H53v24H-39V17z" fill="url(#leaves)"/><path d="M-69-48h21v-35h94v22h34v19H36v-20h-69v30h-36z" fill="url(#leaflight)"/><rect x="21" y="7" width="8" height="8" fill="#527934"/><rect x="-42" y="-49" width="8" height="8" fill="#2b4a25"/><rect x="-51" y="-9" width="8" height="8" fill="#527934"/><rect x="-51" y="-33" width="8" height="8" fill="#486f31"/><rect x="-33" y="7" width="8" height="8" fill="#2b4a25"/><rect x="12" y="-33" width="8" height="8" fill="#2b4a25"/><rect x="-15" y="-17" width="8" height="8" fill="#2b4a25"/><rect x="-6" y="-9" width="8" height="8" fill="#527934"/><rect x="21" y="-49" width="8" height="8" fill="#527934"/><rect x="30" y="-9" width="8" height="8" fill="#486f31"/><rect x="-15" y="-41" width="8" height="8" fill="#527934"/><rect x="30" y="-1" width="8" height="8" fill="#2b4a25"/><rect x="-24" y="-33" width="8" height="8" fill="#2b4a25"/><rect x="-51" y="-33" width="8" height="8" fill="#2b4a25"/><rect x="-24" y="-1" width="8" height="8" fill="#486f31"/><rect x="21" y="-41" width="8" height="8" fill="#2b4a25"/><rect x="12" y="-1" width="8" height="8" fill="#527934"/><rect x="48" y="-9" width="8" height="8" fill="#486f31"/><rect x="30" y="-41" width="8" height="8" fill="#527934"/><rect x="30" y="-1" width="8" height="8" fill="#527934"/><rect x="-15" y="-49" width="8" height="8" fill="#2b4a25"/><rect x="-24" y="-33" width="8" height="8" fill="#486f31"/><rect x="-15" y="7" width="8" height="8" fill="#486f31"/><rect x="-33" y="-33" width="8" height="8" fill="#486f31"/><rect x="-51" y="-17" width="8" height="8" fill="#486f31"/></g><g transform="translate(864 238) scale(0.8)"><rect x="-13" y="0" width="28" height="146" fill="url(#wood)"/><rect x="8" y="0" width="9" height="146" fill="#493923"/><path d="M-69 17v-65h21v-35h94v22h34v70H53v24H-39V17z" fill="url(#leaves)"/><path d="M-69-48h21v-35h94v22h34v19H36v-20h-69v30h-36z" fill="url(#leaflight)"/><rect x="12" y="-49" width="8" height="8" fill="#527934"/><rect x="-15" y="-33" width="8" height="8" fill="#527934"/><rect x="-6" y="-33" width="8" height="8" fill="#486f31"/><rect x="-42" y="-33" width="8" height="8" fill="#527934"/><rect x="3" y="-49" width="8" height="8" fill="#2b4a25"/><rect x="-15" y="-25" width="8" height="8" fill="#2b4a25"/><rect x="21" y="-17" width="8" height="8" fill="#527934"/><rect x="48" y="7" width="8" height="8" fill="#486f31"/><rect x="12" y="-25" width="8" height="8" fill="#2b4a25"/><rect x="48" y="7" width="8" height="8" fill="#486f31"/><rect x="-15" y="7" width="8" height="8" fill="#2b4a25"/><rect x="48" y="-17" width="8" height="8" fill="#2b4a25"/><rect x="12" y="-1" width="8" height="8" fill="#486f31"/><rect x="57" y="-25" width="8" height="8" fill="#527934"/><rect x="-42" y="-17" width="8" height="8" fill="#486f31"/><rect x="30" y="7" width="8" height="8" fill="#2b4a25"/><rect x="12" y="-41" width="8" height="8" fill="#527934"/><rect x="57" y="-41" width="8" height="8" fill="#2b4a25"/><rect x="-51" y="-33" width="8" height="8" fill="#2b4a25"/><rect x="3" y="-33" width="8" height="8" fill="#2b4a25"/><rect x="-51" y="-25" width="8" height="8" fill="#2b4a25"/><rect x="-15" y="-49" width="8" height="8" fill="#2b4a25"/><rect x="-60" y="-1" width="8" height="8" fill="#527934"/><rect x="-15" y="-25" width="8" height="8" fill="#2b4a25"/><rect x="-51" y="-9" width="8" height="8" fill="#486f31"/></g><g transform="translate(1040 213) scale(0.92)"><rect x="-13" y="0" width="28" height="146" fill="url(#wood)"/><rect x="8" y="0" width="9" height="146" fill="#493923"/><path d="M-69 17v-65h21v-35h94v22h34v70H53v24H-39V17z" fill="url(#leaves)"/><path d="M-69-48h21v-35h94v22h34v19H36v-20h-69v30h-36z" fill="url(#leaflight)"/><rect x="-60" y="-9" width="8" height="8" fill="#486f31"/><rect x="57" y="-9" width="8" height="8" fill="#486f31"/><rect x="-42" y="-49" width="8" height="8" fill="#2b4a25"/><rect x="57" y="7" width="8" height="8" fill="#527934"/><rect x="57" y="-33" width="8" height="8" fill="#527934"/><rect x="3" y="7" width="8" height="8" fill="#527934"/><rect x="-60" y="-41" width="8" height="8" fill="#486f31"/><rect x="-24" y="-25" width="8" height="8" fill="#486f31"/><rect x="12" y="-1" width="8" height="8" fill="#486f31"/><rect x="48" y="-17" width="8" height="8" fill="#486f31"/><rect x="-24" y="-41" width="8" height="8" fill="#486f31"/><rect x="-33" y="-1" width="8" height="8" fill="#527934"/><rect x="48" y="7" width="8" height="8" fill="#486f31"/><rect x="-51" y="7" width="8" height="8" fill="#527934"/><rect x="12" y="-49" width="8" height="8" fill="#527934"/><rect x="12" y="-25" width="8" height="8" fill="#527934"/><rect x="-42" y="-17" width="8" height="8" fill="#2b4a25"/><rect x="-60" y="-9" width="8" height="8" fill="#486f31"/><rect x="21" y="-1" width="8" height="8" fill="#486f31"/><rect x="30" y="-41" width="8" height="8" fill="#527934"/><rect x="-15" y="-41" width="8" height="8" fill="#527934"/><rect x="12" y="-49" width="8" height="8" fill="#2b4a25"/><rect x="57" y="7" width="8" height="8" fill="#486f31"/><rect x="30" y="-1" width="8" height="8" fill="#2b4a25"/><rect x="-24" y="-49" width="8" height="8" fill="#2b4a25"/></g><g transform="translate(1270 231) scale(1.1)"><rect x="-13" y="0" width="28" height="146" fill="url(#wood)"/><rect x="8" y="0" width="9" height="146" fill="#493923"/><path d="M-69 17v-65h21v-35h94v22h34v70H53v24H-39V17z" fill="url(#leaves)"/><path d="M-69-48h21v-35h94v22h34v19H36v-20h-69v30h-36z" fill="url(#leaflight)"/><rect x="48" y="-41" width="8" height="8" fill="#2b4a25"/><rect x="-33" y="-41" width="8" height="8" fill="#527934"/><rect x="39" y="-9" width="8" height="8" fill="#486f31"/><rect x="-60" y="-9" width="8" height="8" fill="#527934"/><rect x="-15" y="-33" width="8" height="8" fill="#527934"/><rect x="3" y="7" width="8" height="8" fill="#527934"/><rect x="-42" y="-33" width="8" height="8" fill="#486f31"/><rect x="39" y="7" width="8" height="8" fill="#486f31"/><rect x="-24" y="-25" width="8" height="8" fill="#486f31"/><rect x="48" y="-25" width="8" height="8" fill="#486f31"/><rect x="-15" y="-17" width="8" height="8" fill="#527934"/><rect x="-6" y="7" width="8" height="8" fill="#2b4a25"/><rect x="-60" y="-25" width="8" height="8" fill="#2b4a25"/><rect x="-15" y="-49" width="8" height="8" fill="#527934"/><rect x="-15" y="-17" width="8" height="8" fill="#486f31"/><rect x="48" y="-9" width="8" height="8" fill="#2b4a25"/><rect x="-6" y="7" width="8" height="8" fill="#2b4a25"/><rect x="-15" y="-33" width="8" height="8" fill="#2b4a25"/><rect x="39" y="7" width="8" height="8" fill="#2b4a25"/><rect x="48" y="-17" width="8" height="8" fill="#486f31"/><rect x="39" y="-1" width="8" height="8" fill="#486f31"/><rect x="-6" y="-33" width="8" height="8" fill="#527934"/><rect x="-24" y="-9" width="8" height="8" fill="#486f31"/><rect x="-51" y="-9" width="8" height="8" fill="#527934"/><rect x="-24" y="-17" width="8" height="8" fill="#2b4a25"/></g><g transform="translate(1530 183) scale(1.4)"><rect x="-13" y="0" width="28" height="146" fill="url(#wood)"/><rect x="8" y="0" width="9" height="146" fill="#493923"/><path d="M-69 17v-65h21v-35h94v22h34v70H53v24H-39V17z" fill="url(#leaves)"/><path d="M-69-48h21v-35h94v22h34v19H36v-20h-69v30h-36z" fill="url(#leaflight)"/><rect x="21" y="-1" width="8" height="8" fill="#486f31"/><rect x="39" y="7" width="8" height="8" fill="#2b4a25"/><rect x="3" y="-49" width="8" height="8" fill="#527934"/><rect x="57" y="-9" width="8" height="8" fill="#527934"/><rect x="-6" y="-17" width="8" height="8" fill="#527934"/><rect x="48" y="-49" width="8" height="8" fill="#486f31"/><rect x="30" y="-1" width="8" height="8" fill="#2b4a25"/><rect x="12" y="-33" width="8" height="8" fill="#486f31"/><rect x="-42" y="7" width="8" height="8" fill="#486f31"/><rect x="-42" y="-41" width="8" height="8" fill="#486f31"/><rect x="48" y="-9" width="8" height="8" fill="#2b4a25"/><rect x="-6" y="-49" width="8" height="8" fill="#527934"/><rect x="-42" y="7" width="8" height="8" fill="#2b4a25"/><rect x="-15" y="7" width="8" height="8" fill="#486f31"/><rect x="21" y="-33" width="8" height="8" fill="#527934"/><rect x="-15" y="-1" width="8" height="8" fill="#2b4a25"/><rect x="30" y="-17" width="8" height="8" fill="#486f31"/><rect x="-51" y="-49" width="8" height="8" fill="#527934"/><rect x="-42" y="7" width="8" height="8" fill="#527934"/><rect x="-6" y="-41" width="8" height="8" fill="#2b4a25"/><rect x="48" y="-17" width="8" height="8" fill="#527934"/><rect x="3" y="-25" width="8" height="8" fill="#527934"/><rect x="-24" y="7" width="8" height="8" fill="#486f31"/><rect x="-51" y="-33" width="8" height="8" fill="#486f31"/><rect x="3" y="-33" width="8" height="8" fill="#527934"/></g><g transform="translate(67 213) scale(1.5)"><rect x="-13" y="0" width="28" height="146" fill="url(#wood)"/><rect x="8" y="0" width="9" height="146" fill="#493923"/><path d="M-69 17v-65h21v-35h94v22h34v70H53v24H-39V17z" fill="url(#leaves)"/><path d="M-69-48h21v-35h94v22h34v19H36v-20h-69v30h-36z" fill="url(#leaflight)"/><rect x="3" y="-41" width="8" height="8" fill="#527934"/><rect x="57" y="-9" width="8" height="8" fill="#527934"/><rect x="-15" y="-41" width="8" height="8" fill="#527934"/><rect x="12" y="-17" width="8" height="8" fill="#2b4a25"/><rect x="57" y="-33" width="8" height="8" fill="#527934"/><rect x="39" y="-33" width="8" height="8" fill="#2b4a25"/><rect x="12" y="-25" width="8" height="8" fill="#486f31"/><rect x="-33" y="-33" width="8" height="8" fill="#486f31"/><rect x="48" y="7" width="8" height="8" fill="#486f31"/><rect x="-15" y="-9" width="8" height="8" fill="#2b4a25"/><rect x="48" y="-33" width="8" height="8" fill="#527934"/><rect x="-51" y="-41" width="8" height="8" fill="#2b4a25"/><rect x="-6" y="7" width="8" height="8" fill="#527934"/><rect x="-6" y="-1" width="8" height="8" fill="#527934"/><rect x="-51" y="-33" width="8" height="8" fill="#2b4a25"/><rect x="30" y="-41" width="8" height="8" fill="#2b4a25"/><rect x="3" y="-9" width="8" height="8" fill="#486f31"/><rect x="57" y="-33" width="8" height="8" fill="#486f31"/><rect x="-6" y="-49" width="8" height="8" fill="#486f31"/><rect x="12" y="-33" width="8" height="8" fill="#2b4a25"/><rect x="-42" y="-33" width="8" height="8" fill="#2b4a25"/><rect x="39" y="-25" width="8" height="8" fill="#2b4a25"/><rect x="12" y="-17" width="8" height="8" fill="#486f31"/><rect x="-24" y="-25" width="8" height="8" fill="#527934"/><rect x="12" y="-17" width="8" height="8" fill="#486f31"/></g><g transform="translate(1450 224) scale(1.9)"><rect x="-13" y="0" width="28" height="146" fill="url(#wood)"/><rect x="8" y="0" width="9" height="146" fill="#493923"/><path d="M-69 17v-65h21v-35h94v22h34v70H53v24H-39V17z" fill="url(#leaves)"/><path d="M-69-48h21v-35h94v22h34v19H36v-20h-69v30h-36z" fill="url(#leaflight)"/><rect x="30" y="-17" width="8" height="8" fill="#527934"/><rect x="12" y="-41" width="8" height="8" fill="#527934"/><rect x="30" y="-33" width="8" height="8" fill="#527934"/><rect x="21" y="-33" width="8" height="8" fill="#486f31"/><rect x="30" y="-9" width="8" height="8" fill="#527934"/><rect x="-60" y="-49" width="8" height="8" fill="#486f31"/><rect x="-60" y="-17" width="8" height="8" fill="#527934"/><rect x="-33" y="-1" width="8" height="8" fill="#527934"/><rect x="30" y="-49" width="8" height="8" fill="#2b4a25"/><rect x="30" y="-17" width="8" height="8" fill="#527934"/><rect x="-24" y="7" width="8" height="8" fill="#486f31"/><rect x="48" y="-1" width="8" height="8" fill="#2b4a25"/><rect x="3" y="-41" width="8" height="8" fill="#527934"/><rect x="-60" y="-33" width="8" height="8" fill="#2b4a25"/><rect x="-6" y="7" width="8" height="8" fill="#2b4a25"/><rect x="-33" y="-9" width="8" height="8" fill="#527934"/><rect x="-42" y="-9" width="8" height="8" fill="#527934"/><rect x="-15" y="-9" width="8" height="8" fill="#2b4a25"/><rect x="-42" y="-9" width="8" height="8" fill="#527934"/><rect x="12" y="-41" width="8" height="8" fill="#2b4a25"/><rect x="-33" y="7" width="8" height="8" fill="#486f31"/><rect x="-24" y="7" width="8" height="8" fill="#486f31"/><rect x="-42" y="-41" width="8" height="8" fill="#486f31"/><rect x="-24" y="-1" width="8" height="8" fill="#527934"/><rect x="-6" y="-25" width="8" height="8" fill="#486f31"/></g><g transform="translate(1590 308) scale(1.35)"><rect x="-13" y="0" width="28" height="146" fill="url(#wood)"/><rect x="8" y="0" width="9" height="146" fill="#493923"/><path d="M-69 17v-65h21v-35h94v22h34v70H53v24H-39V17z" fill="url(#leaves)"/><path d="M-69-48h21v-35h94v22h34v19H36v-20h-69v30h-36z" fill="url(#leaflight)"/><rect x="57" y="-9" width="8" height="8" fill="#527934"/><rect x="39" y="-9" width="8" height="8" fill="#486f31"/><rect x="48" y="-33" width="8" height="8" fill="#2b4a25"/><rect x="12" y="7" width="8" height="8" fill="#2b4a25"/><rect x="-24" y="7" width="8" height="8" fill="#486f31"/><rect x="-51" y="-1" width="8" height="8" fill="#527934"/><rect x="3" y="-25" width="8" height="8" fill="#486f31"/><rect x="21" y="-9" width="8" height="8" fill="#486f31"/><rect x="-60" y="-17" width="8" height="8" fill="#2b4a25"/><rect x="21" y="7" width="8" height="8" fill="#2b4a25"/><rect x="12" y="-49" width="8" height="8" fill="#486f31"/><rect x="-6" y="-33" width="8" height="8" fill="#2b4a25"/><rect x="39" y="-9" width="8" height="8" fill="#2b4a25"/><rect x="-15" y="-49" width="8" height="8" fill="#2b4a25"/><rect x="-60" y="-25" width="8" height="8" fill="#2b4a25"/><rect x="12" y="-17" width="8" height="8" fill="#486f31"/><rect x="-6" y="7" width="8" height="8" fill="#527934"/><rect x="-24" y="-41" width="8" height="8" fill="#486f31"/><rect x="-51" y="-1" width="8" height="8" fill="#2b4a25"/><rect x="48" y="-9" width="8" height="8" fill="#527934"/><rect x="-15" y="-33" width="8" height="8" fill="#486f31"/><rect x="21" y="-1" width="8" height="8" fill="#527934"/><rect x="-60" y="-49" width="8" height="8" fill="#486f31"/><rect x="-42" y="-9" width="8" height="8" fill="#2b4a25"/><rect x="12" y="7" width="8" height="8" fill="#486f31"/></g><path d="M1240 558v-8h3v5h3v-10h3v13z" fill="#365d2c"/><path d="M664 582v-8h3v5h3v-10h3v13z" fill="#638b3f"/><path d="M328 526v-8h3v5h3v-10h3v13z" fill="#456b2f"/><path d="M1512 502v-8h3v5h3v-10h3v13z" fill="#456b2f"/><path d="M688 558v-8h3v5h3v-10h3v13z" fill="#456b2f"/><path d="M1088 550v-8h3v5h3v-10h3v13z" fill="#456b2f"/><path d="M1152 502v-8h3v5h3v-10h3v13z" fill="#638b3f"/><path d="M32 518v-8h3v5h3v-10h3v13z" fill="#638b3f"/><path d="M1376 454v-8h3v5h3v-10h3v13z" fill="#638b3f"/><path d="M1192 502v-8h3v5h3v-10h3v13z" fill="#456b2f"/><path d="M1408 430v-8h3v5h3v-10h3v13z" fill="#456b2f"/><path d="M968 494v-8h3v5h3v-10h3v13z" fill="#456b2f"/><path d="M1584 574v-8h3v5h3v-10h3v13z" fill="#456b2f"/><path d="M464 438v-8h3v5h3v-10h3v13z" fill="#456b2f"/><path d="M976 470v-8h3v5h3v-10h3v13z" fill="#456b2f"/><path d="M1288 582v-8h3v5h3v-10h3v13z" fill="#638b3f"/><path d="M296 486v-8h3v5h3v-10h3v13z" fill="#365d2c"/><path d="M1168 454v-8h3v5h3v-10h3v13z" fill="#365d2c"/><path d="M32 542v-8h3v5h3v-10h3v13z" fill="#638b3f"/><path d="M856 462v-8h3v5h3v-10h3v13z" fill="#638b3f"/><path d="M1408 478v-8h3v5h3v-10h3v13z" fill="#638b3f"/><path d="M1024 582v-8h3v5h3v-10h3v13z" fill="#638b3f"/><path d="M1504 438v-8h3v5h3v-10h3v13z" fill="#456b2f"/><path d="M280 558v-8h3v5h3v-10h3v13z" fill="#365d2c"/><path d="M1144 510v-8h3v5h3v-10h3v13z" fill="#456b2f"/><path d="M976 558v-8h3v5h3v-10h3v13z" fill="#638b3f"/><path d="M640 470v-8h3v5h3v-10h3v13z" fill="#638b3f"/><path d="M1088 510v-8h3v5h3v-10h3v13z" fill="#456b2f"/><path d="M720 494v-8h3v5h3v-10h3v13z" fill="#456b2f"/><path d="M984 478v-8h3v5h3v-10h3v13z" fill="#365d2c"/><path d="M568 566v-8h3v5h3v-10h3v13z" fill="#638b3f"/><path d="M456 502v-8h3v5h3v-10h3v13z" fill="#638b3f"/><path d="M1440 478v-8h3v5h3v-10h3v13z" fill="#456b2f"/><path d="M1440 550v-8h3v5h3v-10h3v13z" fill="#638b3f"/><path d="M976 518v-8h3v5h3v-10h3v13z" fill="#456b2f"/><path d="M1472 494v-8h3v5h3v-10h3v13z" fill="#638b3f"/><path d="M248 574v-8h3v5h3v-10h3v13z" fill="#456b2f"/><path d="M1112 526v-8h3v5h3v-10h3v13z" fill="#638b3f"/><path d="M704 462v-8h3v5h3v-10h3v13z" fill="#638b3f"/><path d="M80 502v-8h3v5h3v-10h3v13z" fill="#456b2f"/><path d="M160 518v-8h3v5h3v-10h3v13z" fill="#638b3f"/><path d="M1336 494v-8h3v5h3v-10h3v13z" fill="#456b2f"/><path d="M976 478v-8h3v5h3v-10h3v13z" fill="#365d2c"/><path d="M1096 494v-8h3v5h3v-10h3v13z" fill="#456b2f"/><path d="M1424 494v-8h3v5h3v-10h3v13z" fill="#365d2c"/><path d="M216 582v-8h3v5h3v-10h3v13z" fill="#456b2f"/><path d="M1200 486v-8h3v5h3v-10h3v13z" fill="#365d2c"/><path d="M96 558v-8h3v5h3v-10h3v13z" fill="#365d2c"/><path d="M1304 486v-8h3v5h3v-10h3v13z" fill="#365d2c"/><path d="M200 534v-8h3v5h3v-10h3v13z" fill="#638b3f"/><path d="M1464 550v-8h3v5h3v-10h3v13z" fill="#365d2c"/><path d="M1392 462v-8h3v5h3v-10h3v13z" fill="#365d2c"/><path d="M1120 470v-8h3v5h3v-10h3v13z" fill="#638b3f"/><path d="M1336 550v-8h3v5h3v-10h3v13z" fill="#638b3f"/><path d="M1328 478v-8h3v5h3v-10h3v13z" fill="#638b3f"/><path d="M656 502v-8h3v5h3v-10h3v13z" fill="#456b2f"/><path d="M120 446v-8h3v5h3v-10h3v13z" fill="#456b2f"/><path d="M1168 486v-8h3v5h3v-10h3v13z" fill="#456b2f"/><path d="M1512 438v-8h3v5h3v-10h3v13z" fill="#365d2c"/><path d="M848 470v-8h3v5h3v-10h3v13z" fill="#365d2c"/><path d="M808 550v-8h3v5h3v-10h3v13z" fill="#365d2c"/><path d="M1528 502v-8h3v5h3v-10h3v13z" fill="#365d2c"/><path d="M16 502v-8h3v5h3v-10h3v13z" fill="#456b2f"/><path d="M1232 454v-8h3v5h3v-10h3v13z" fill="#638b3f"/><path d="M576 542v-8h3v5h3v-10h3v13z" fill="#456b2f"/><path d="M1112 558v-8h3v5h3v-10h3v13z" fill="#638b3f"/><path d="M272 558v-8h3v5h3v-10h3v13z" fill="#638b3f"/><path d="M552 478v-8h3v5h3v-10h3v13z" fill="#365d2c"/><path d="M672 470v-8h3v5h3v-10h3v13z" fill="#456b2f"/><path d="M936 494v-8h3v5h3v-10h3v13z" fill="#456b2f"/><path d="M376 430v-8h3v5h3v-10h3v13z" fill="#456b2f"/><path d="M688 502v-8h3v5h3v-10h3v13z" fill="#456b2f"/><path d="M1376 478v-8h3v5h3v-10h3v13z" fill="#365d2c"/><path d="M1248 526v-8h3v5h3v-10h3v13z" fill="#638b3f"/><path d="M1048 510v-8h3v5h3v-10h3v13z" fill="#365d2c"/><path d="M816 454v-8h3v5h3v-10h3v13z" fill="#365d2c"/><path d="M280 550v-8h3v5h3v-10h3v13z" fill="#638b3f"/><path d="M504 430v-8h3v5h3v-10h3v13z" fill="#638b3f"/><path d="M784 486v-8h3v5h3v-10h3v13z" fill="#638b3f"/><path d="M1536 494v-8h3v5h3v-10h3v13z" fill="#638b3f"/><path d="M616 574v-8h3v5h3v-10h3v13z" fill="#456b2f"/><path d="M1168 430v-8h3v5h3v-10h3v13z" fill="#638b3f"/><path d="M1336 518v-8h3v5h3v-10h3v13z" fill="#456b2f"/><path d="M480 438v-8h3v5h3v-10h3v13z" fill="#456b2f"/><path d="M240 542v-8h3v5h3v-10h3v13z" fill="#638b3f"/><path d="M320 526v-8h3v5h3v-10h3v13z" fill="#456b2f"/><path d="M1024 502v-8h3v5h3v-10h3v13z" fill="#456b2f"/><path d="M240 502v-8h3v5h3v-10h3v13z" fill="#638b3f"/><path d="M1256 486v-8h3v5h3v-10h3v13z" fill="#365d2c"/><path d="M272 550v-8h3v5h3v-10h3v13z" fill="#365d2c"/><path d="M928 582v-8h3v5h3v-10h3v13z" fill="#638b3f"/><path d="M848 566v-8h3v5h3v-10h3v13z" fill="#638b3f"/><path d="M1544 566v-8h3v5h3v-10h3v13z" fill="#456b2f"/><path d="M440 486v-8h3v5h3v-10h3v13z" fill="#456b2f"/><path d="M1544 582v-8h3v5h3v-10h3v13z" fill="#365d2c"/><path d="M1072 542v-8h3v5h3v-10h3v13z" fill="#456b2f"/><path d="M1440 518v-8h3v5h3v-10h3v13z" fill="#365d2c"/><path d="M1152 454v-8h3v5h3v-10h3v13z" fill="#365d2c"/><path d="M1120 558v-8h3v5h3v-10h3v13z" fill="#365d2c"/><path d="M1168 566v-8h3v5h3v-10h3v13z" fill="#365d2c"/><path d="M336 510v-8h3v5h3v-10h3v13z" fill="#456b2f"/><path d="M904 454v-8h3v5h3v-10h3v13z" fill="#456b2f"/><path d="M416 574v-8h3v5h3v-10h3v13z" fill="#638b3f"/><path d="M184 558v-8h3v5h3v-10h3v13z" fill="#638b3f"/><path d="M112 542v-8h3v5h3v-10h3v13z" fill="#365d2c"/><path d="M1048 534v-8h3v5h3v-10h3v13z" fill="#638b3f"/><path d="M1152 438v-8h3v5h3v-10h3v13z" fill="#456b2f"/><path d="M944 502v-8h3v5h3v-10h3v13z" fill="#456b2f"/><path d="M40 526v-8h3v5h3v-10h3v13z" fill="#638b3f"/><path d="M0 478v-8h3v5h3v-10h3v13z" fill="#456b2f"/><path d="M144 438v-8h3v5h3v-10h3v13z" fill="#638b3f"/><path d="M704 446v-8h3v5h3v-10h3v13z" fill="#456b2f"/><path d="M120 446v-8h3v5h3v-10h3v13z" fill="#638b3f"/><path d="M64 502v-8h3v5h3v-10h3v13z" fill="#638b3f"/><path d="M368 462v-8h3v5h3v-10h3v13z" fill="#456b2f"/><rect x="63" y="484" width="4" height="16" fill="#30572e"/><rect x="59" y="479" width="12" height="8" fill="#d7c678"/><rect x="63" y="475" width="4" height="16" fill="#e6d592"/><rect x="244" y="471" width="4" height="16" fill="#30572e"/><rect x="240" y="466" width="12" height="8" fill="#d7c678"/><rect x="244" y="462" width="4" height="16" fill="#e6d592"/><rect x="1300" y="471" width="4" height="16" fill="#30572e"/><rect x="1296" y="466" width="12" height="8" fill="#d7c678"/><rect x="1300" y="462" width="4" height="16" fill="#e6d592"/><rect x="1378" y="522" width="4" height="16" fill="#30572e"/><rect x="1374" y="517" width="12" height="8" fill="#d7c678"/><rect x="1378" y="513" width="4" height="16" fill="#e6d592"/><rect x="373" y="540" width="4" height="16" fill="#30572e"/><rect x="369" y="535" width="12" height="8" fill="#d7c678"/><rect x="373" y="531" width="4" height="16" fill="#e6d592"/><rect x="1242" y="556" width="4" height="16" fill="#30572e"/><rect x="1238" y="551" width="12" height="8" fill="#d7c678"/><rect x="1242" y="547" width="4" height="16" fill="#e6d592"/></svg>